<svg id="Layer_1" height="512" viewBox="0 0 128 128" width="512" xmlns="http://www.w3.org/2000/svg" data-name="Layer 1"><path d="m46.774 51.076h46.629v46.629h-46.629z" fill="#ed862f" transform="matrix(.992 -.122 .122 .992 -8.572 9.131)"/><path d="m82.46 49.375-39.491 4.91 5.703 46.279 33.871-4.217 5.62-.693z" fill="#fa983c"/><path d="m42.188 22.944h39.968v28.866h-39.968z" fill="#ed862f" transform="matrix(.992 -.122 .122 .992 -4.105 7.884)"/><path d="m41.078 23.47h33.653v28.866h-33.653z" fill="#fa983c" transform="matrix(.992 -.122 .122 .992 -4.201 7.367)"/><path d="m75.071 65.946-6.518-4.015-5.348 5.478-1.901-15.427 11.867-1.462z" fill="#ddeeef"/><path d="m67.122 35.648-5.587-3.441-4.585 4.695-1.629-13.223 10.171-1.253z" fill="#ddeeef"/><path d="m106.018 101.822-59.524 7.335a4.1 4.1 0 0 1 -4.57-3.567l-10.482-85.064-8.476 1.045a4.1 4.1 0 0 1 -1-8.137l12.545-1.546a4.1 4.1 0 0 1 4.57 3.567l10.479 85.064 55.455-6.834a4.1 4.1 0 1 1 1 8.137z" fill="#ccdbdb"/><path d="m104.04 97.938a4.1 4.1 0 0 0 -4.57-3.567l-55.455 6.829-10.482-85.06a4.1 4.1 0 0 0 -4.57-3.567l-7.018.865a4.1 4.1 0 0 0 1.021 8.133l8.476-1.044 10.482 85.063a4.1 4.1 0 0 0 4.57 3.567l54-6.654a4.1 4.1 0 0 0 3.546-4.565z" fill="#ddeeef"/><circle cx="46.265" cy="103.663" fill="#3e4343" r="12.479" transform="matrix(.992 -.122 .122 .992 -12.331 6.437)"/><path d="m52.567 102.137a12.473 12.473 0 0 0 -9.344-10.566 12.466 12.466 0 0 0 0 24.185 12.473 12.473 0 0 0 9.344-13.619z" fill="#525959"/><circle cx="46.265" cy="103.663" fill="#ccdbdb" r="3.91" transform="matrix(.992 -.122 .122 .992 -12.331 6.437)"/><g fill="#68210c"><path d="m66.721 104.907-.772.095a1.75 1.75 0 0 0 .211 3.487 1.779 1.779 0 0 0 .215-.013l.772-.095a1.75 1.75 0 0 0 -.426-3.475z"/><path d="m111.318 97.044a5.85 5.85 0 0 0 -6.521-5.091l-7.186.885-5.5-44.648a1.75 1.75 0 0 0 -1.951-1.523l-44.8 5.521-3.1-25.131 11.529-1.421 1.421 11.486a1.75 1.75 0 0 0 2.99 1.008l3.606-3.693 4.394 2.707a1.75 1.75 0 0 0 2.655-1.7l-.737-5.983a1.75 1.75 0 1 0 -3.474.428l.292 2.37-2.487-1.532a1.75 1.75 0 0 0 -2.17.268l-2.041 2.09-.97-7.872 21.445-2.643 2.3 18.652a1.75 1.75 0 0 0 1.734 1.536 1.791 1.791 0 0 0 .216-.013 1.751 1.751 0 0 0 1.523-1.951l-2.513-20.394a1.75 1.75 0 0 0 -1.951-1.523l-38.184 4.705-1.028-8.335a5.864 5.864 0 0 0 -6.521-5.091l-12.544 1.544a5.85 5.85 0 0 0 1.431 11.612l6.74-.831 8.54 69.3a14.226 14.226 0 0 0 7.777 26.119 14.582 14.582 0 0 0 1.767-.109 14.229 14.229 0 0 0 12.381-15.862c-.04-.323-.1-.638-.165-.954l45.008-5.547a2.349 2.349 0 1 1 .574 4.663l-32.394 3.992a1.75 1.75 0 0 0 .212 3.487 1.789 1.789 0 0 0 .216-.013l32.394-3.992a5.849 5.849 0 0 0 5.091-6.521zm-56.6 13.226a10.729 10.729 0 1 1 -9.769-17.249 10.716 10.716 0 0 1 11.96 9.335 10.658 10.658 0 0 1 -2.191 7.914zm.3-17.817a14.152 14.152 0 0 0 -10.5-2.906 14.373 14.373 0 0 0 -2.74.613l-8.603-69.842a1.75 1.75 0 0 0 -1.951-1.523l-8.477 1.045a2.349 2.349 0 1 1 -.575-4.663l12.546-1.547a2.347 2.347 0 0 1 2.619 2.044l8.163 66.226a1.75 1.75 0 1 0 3.474-.428l-3.18-25.807 13.987-1.724 1.687 13.689a1.75 1.75 0 0 0 2.989 1.009l4.37-4.476 5.327 3.281a1.75 1.75 0 0 0 2.655-1.7l-.861-6.982a1.75 1.75 0 1 0 -3.474.428l.415 3.369-3.418-2.106a1.752 1.752 0 0 0 -2.17.268l-2.8 2.872-1.25-10.082 25.6-3.155 5.288 42.911-35.022 4.316a14.151 14.151 0 0 0 -4.1-5.13z"/><path d="m49.745 99.207a5.66 5.66 0 1 0 -3.5 10.123 5.906 5.906 0 0 0 .7-.043 5.661 5.661 0 0 0 2.791-10.08zm-1.78 5.793a2.16 2.16 0 1 1 -1.965-3.476 2.267 2.267 0 0 1 .269-.017 2.161 2.161 0 0 1 1.7 3.49z"/></g></svg>