<svg id="Capa_1" enable-background="new 0 0 511.994 511.994" height="512" viewBox="0 0 511.994 511.994" width="512" xmlns="http://www.w3.org/2000/svg"><path d="m511.994 299.657-15-25.981-34.547 19.946c-16.382-28.374-133.697-231.57-150-259.807l-155.885 90-40.598-70.318c-8.013-13.878-22.946-22.5-38.971-22.5h-76.993v30h76.994c5.342 0 10.319 2.874 12.991 7.5l154.385 267.402c-28.245 10.767-48.37 38.12-48.37 70.098 0 41.355 33.645 75 75 75s75-33.645 75-75c0-3.427-.252-6.794-.699-10.1zm-176.87 67.475c-12.303-20.224-33.907-34.177-58.824-35.927l-29.737-51.506 25.981-15 30 51.962 77.941-45-30-51.961 25.981-15 60 103.923zm-10.619-132.433 15 25.981-25.98 15-15-25.981zm-60-103.923-25.981 15-15-25.981 25.981-15zm-66.962 4.019 30 51.962 77.942-45-30-51.961 25.981-15 60 103.923-129.904 75-60-103.923zm73.457 316.202c-24.813 0-45-20.187-45-45s20.187-45 45-45 45 20.187 45 45-20.187 45-45 45z"/><path d="m256 390.997h30v30h-30z"/></svg>