<svg id="Layer_1" height="512" viewBox="0 0 512 512" width="512" xmlns="http://www.w3.org/2000/svg" data-name="Layer 1"><path d="m470.47 353.09v50.19c0 59.85-70.48 79.76-70.48 79.76s-55.92-16.35-66.41-63.97a73.443 73.443 0 0 1 -1.68-15.79v-50.19l.46-.2a335.724 335.724 0 0 0 68.83-39.85 335.479 335.479 0 0 0 45.99 28.99q11.2 5.865 22.84 10.86z" fill="#e48e66"/><path d="m447.18 277.98v64.05a335.479 335.479 0 0 1 -45.99-28.99 335.724 335.724 0 0 1 -68.83 39.85l-.46.2v50.19a73.443 73.443 0 0 0 1.68 15.79l-.96.06h-137.41v-141.15z" fill="#f8ec7d"/><path d="m377.27 43.9v22.31h-22.88-66.95-126.98v-20.97-1.34z" fill="#6fe3ff"/><path d="m287.44 66.21h66.95v22.32h-66.95z" fill="#e48e66"/><path d="m320.91 107.62a16.74 16.74 0 1 1 -16.73 16.74 16.74 16.74 0 0 1 16.73-16.74z" fill="#6fe3ff"/><path d="m231.21 454.91v41.09h-189.68v-41.09h45.82 73.11z" fill="#6fe3ff"/><g fill="#e48e66"><path d="m160.46 453.67v1.24h-73.11v-1.24-24.16l73.11-41.43z"/><path d="m160.46 317.41v70.67l-73.11-29.24z"/><path d="m160.46 246.75v70.66l-73.11-29.24z"/><path d="m160.46 176.08v70.67l-73.11-29.25z"/><path d="m160.46 115.91v60.17l-73.11-29.25z"/><path d="m160.46 66.21v49.7l-73.11-29.24 73.11-41.43z"/><path d="m160.46 43.9v1.34l-73.11-29.24h73.11z"/></g><path d="m160.46 45.24-73.11 41.43v-20.46-22.31-27.9z" fill="#e2d574"/><path d="m160.46 115.91-73.11 30.92v-60.16z" fill="#e2d574"/><path d="m160.46 176.08-73.11 41.42v-70.67z" fill="#e2d574"/><path d="m160.46 246.75-73.11 41.42v-70.67z" fill="#e2d574"/><path d="m160.46 317.41-73.11 41.43v-70.67z" fill="#e2d574"/><path d="m160.46 388.08-73.11 41.43v-70.67z" fill="#e2d574"/><path d="m41.53 43.9h45.82v22.31h-45.82z" fill="#6fe3ff"/><path d="m267.2 299.84a6 6 0 0 0 -6 6v85.44a6 6 0 0 0 12 0v-85.44a6 6 0 0 0 -6-6z" fill="#63316d"/><path d="m231.21 299.84a6 6 0 0 0 -6 6v85.44a6 6 0 0 0 12 0v-85.44a6 6 0 0 0 -6-6z" fill="#63316d"/><path d="m339.2 331.28a6 6 0 0 0 6-6v-19.44a6 6 0 0 0 -12 0v19.44a6 6 0 0 0 6 6z" fill="#63316d"/><path d="m375.19 317.28a6 6 0 0 0 6-6v-5.44a6 6 0 0 0 -12 0v5.44a6 6 0 0 0 6 6z" fill="#63316d"/><path d="m303.2 299.84a6 6 0 0 0 -6 6v85.44a6 6 0 0 0 12 0v-85.44a6 6 0 0 0 -6-6z" fill="#63316d"/><path d="m472.909 347.608-.52-.231c-6.5-2.794-12.941-5.828-19.209-9.018v-60.379a6 6 0 0 0 -3.592-5.493l-.05-.022-.038-.016-122.3-53.62v-14.785a22.714 22.714 0 0 0 5.276-41.4 11.369 11.369 0 0 1 -5.566-9.736v-6.62a22.735 22.735 0 0 0 0-43.861v-7.9h27.48a6 6 0 0 0 6-6v-16.317h16.88a6 6 0 0 0 6-6v-22.31a6 6 0 0 0 -6-6h-210.81v-21.9a6 6 0 0 0 -6-6h-73.11-.039c-.139 0-.276.01-.413.021-.065.005-.131.006-.2.013-.109.012-.217.032-.325.05-.092.015-.184.027-.274.046-.064.013-.126.033-.19.048-.129.032-.259.063-.384.1l-.042.016a5.929 5.929 0 0 0 -1.018.438l-.03.018c-.155.087-.307.178-.453.277-.13.088-.254.184-.377.282-.025.02-.052.037-.077.058a5.926 5.926 0 0 0 -.774.77c-.013.015-.028.029-.04.045-.082.1-.157.206-.234.312-.039.055-.082.108-.12.164-.051.077-.1.158-.144.237s-.115.186-.166.283c-.031.058-.058.12-.087.181-.06.122-.119.244-.171.371-.005.013-.012.024-.017.036-.019.049-.032.1-.05.147-.047.125-.092.251-.13.38-.025.082-.043.165-.064.248-.026.106-.054.211-.074.319s-.037.225-.052.338c-.01.079-.023.157-.031.237-.013.141-.018.281-.021.421 0 .047-.007.092-.007.139v21.905h-39.816a6 6 0 0 0 -6 6v22.31a6 6 0 0 0 6 6h39.82v376.7h-39.82a6 6 0 0 0 -6 6v41.09a6 6 0 0 0 6 6h189.68a6 6 0 0 0 6-6v-41.09a6 6 0 0 0 -6-6h-64.75v-376.7h114.98v16.32a6 6 0 0 0 6 6h27.47v7.9a22.738 22.738 0 0 0 0 43.86v6.62a23.427 23.427 0 0 0 11.463 20.069 10.743 10.743 0 0 1 -4.993 19.98h-.28a10.738 10.738 0 0 1 -10.92-10.729 6 6 0 1 0 -12 0 22.7 22.7 0 0 0 17.02 21.988v14.61l-123.4 54.066.05.114a5.993 5.993 0 0 0 -2.642 4.972v141.15a6 6 0 0 0 6 6h133.727c13.525 46.83 67.026 62.984 69.371 63.669a6 6 0 0 0 3.315.015 134.369 134.369 0 0 0 37.073-18.314c24.713-17.475 37.776-40.72 37.776-67.223v-50.187a6 6 0 0 0 -3.561-5.482zm-379.559-322.746 53.29 21.313-53.29 30.2zm0 201.5 53.29 21.321-53.29 30.192zm7.82-9.8 53.29-30.191v51.512zm-7.82-9.361v-51.508l53.29 21.321zm0 89.827 53.29 21.313-53.29 30.2zm7.821-9.8 53.289-30.19v51.5zm53.289-120.01-51.342-20.542 51.342-21.714zm-61.11-29.44v-42.246l51.34 20.533zm0 229.924 53.29 21.313-53.29 30.2zm7.82-9.8 53.29-30.2v51.512zm0-272.17 53.29-30.2v51.512zm53.29-49.357-35.95-14.375h35.95zm-106.93 23.835v-10.31h33.82v10.31zm177.68 429.79h-177.68v-29.09h177.68zm-131.86-41.09v-15.9l61.11-34.63v50.53zm73.11-399.01h204.81v10.31h-204.81zm126.98 22.31h54.95v10.32h-54.95zm16.74 52.15a10.735 10.735 0 1 1 10.73 10.74 10.747 10.747 0 0 1 -10.73-10.74zm108.371 147.62h-194.761l97.41-42.68zm-217.341 12h239.97v47.955a330.777 330.777 0 0 1 -31.016-19.749 5.97 5.97 0 0 0 7.026-5.906v-.44a6 6 0 0 0 -12 0v.44a5.972 5.972 0 0 0 .668 2.744c-.354-.263-.715-.519-1.067-.784a6 6 0 0 0 -7.2 0 329.85 329.85 0 0 1 -67.625 39.15l-.46.2a6 6 0 0 0 -3.607 5.5v50.19a81.327 81.327 0 0 0 .6 9.85h-125.289zm263.26 119.3c0 22.659-10.911 41.915-32.431 57.231a126.589 126.589 0 0 1 -32.011 16.229c-9-3.109-51.977-19.869-60.588-58.961a67.772 67.772 0 0 1 -1.54-14.5v-46.258a344.439 344.439 0 0 0 33.065-16.821 343.377 343.377 0 0 0 30.223-19.7 342.691 342.691 0 0 0 43.108 26.79l.057.03.044.024c6.534 3.421 13.288 6.673 20.073 9.671z" fill="#63316d"/><path d="m427.138 375.635-34.861 31.922-16.677-18.084a6 6 0 1 0 -8.822 8.134l20.73 22.48a6 6 0 0 0 8.463.357l39.27-35.96a6 6 0 1 0 -8.1-8.849z" fill="#63316d"/></svg>