<?xml version="1.0" encoding="iso-8859-1"?>
<!-- Generator: Adobe Illustrator 19.0.0, SVG Export Plug-In . SVG Version: 6.00 Build 0)  -->
<svg version="1.1" id="Capa_1" xmlns="http://www.w3.org/2000/svg" xmlns:xlink="http://www.w3.org/1999/xlink" x="0px" y="0px"
	 viewBox="0 0 512 512" style="enable-background:new 0 0 512 512;" xml:space="preserve">
<polygon style="fill:#A9E1FA;" points="90,391 30,391 30,361 60,361 60,294.333 90,294.333 "/>
<path style="fill:#0E61C4;" d="M442,361H120v-81.667h322V361z"/>
<path style="fill:#0C4EAD;" d="M442,361H256v-81.667h186V361z"/>
<path style="fill:#0E61C4;" d="M437,301c-11.517,0-108.483,0-120,0c-24.813,0-45,20.187-45,45s20.187,45,45,45
	c11.517,0,22.032-4.354,30-11.495c7.968,7.142,18.483,11.495,30,11.495s22.032-4.354,30-11.495c7.968,7.142,18.483,11.495,30,11.495
	c24.813,0,45-20.187,45-45S461.813,301,437,301z"/>
<path style="fill:#FDE882;" d="M512,309.333H0V121h512V309.333z"/>
<g>
	<path style="fill:#CBEDFD;" d="M317,361c-8.271,0-15-6.729-15-15s6.729-15,15-15s15,6.729,15,15S325.271,361,317,361z"/>
	<path style="fill:#CBEDFD;" d="M377,361c-8.271,0-15-6.729-15-15s6.729-15,15-15s15,6.729,15,15S385.271,361,377,361z"/>
	<path style="fill:#CBEDFD;" d="M437,361c-8.271,0-15-6.729-15-15s6.729-15,15-15s15,6.729,15,15S445.271,361,437,361z"/>
</g>
<path style="fill:#FDDA40;" d="M512,309.333H256V121h256V309.333z"/>
<g>
</g>
<g>
</g>
<g>
</g>
<g>
</g>
<g>
</g>
<g>
</g>
<g>
</g>
<g>
</g>
<g>
</g>
<g>
</g>
<g>
</g>
<g>
</g>
<g>
</g>
<g>
</g>
<g>
</g>
</svg>
