<svg height="511pt" viewBox="0 -16 511.9592 511" width="511pt" xmlns="http://www.w3.org/2000/svg"><path d="m403.351562 401.566406h-43.203124l11.339843 17.066406h52.855469l-20.34375-17.191406c-.21875.015625-.390625.125-.648438.125zm0 0"/><path d="m383.984375 384.5-17.800781-15.050781c-1.542969-1.304688-3.496094-2.015625-5.515625-2.015625h-23.210938l11.34375 17.066406zm0 0"/><path d="m316.960938 367.433594h-30.351563l3.488281 17.066406h38.203125zm0 0"/><path d="m235.792969 401.566406-3.492188 17.066406h47.363281l-3.492187-17.066406zm0 0"/><path d="m293.589844 401.566406 3.488281 17.066406h53.914063l-11.339844-17.066406zm0 0"/><path d="m183.664062 384.5h38.203126l3.488281-17.066406h-30.351563zm0 0"/><path d="m160.972656 418.632812h53.914063l3.488281-17.066406h-46.0625zm0 0"/><path d="m174.507812 367.433594h-23.210937c-2.015625 0-3.964844.714844-5.503906 2.015625l-17.808594 15.050781h35.15625zm0 0"/><path d="m107.988281 401.441406-20.316406 17.191406h52.804687l11.339844-17.066406h-43.203125c-.257812 0-.410156-.109375-.625-.125zm0 0"/><path d="m269.183594 367.433594h-26.402344l-3.5 17.066406h33.402344zm0 0"/><path d="m495.941406 17.824219c-159.136718-23.125-320.78125-23.125-479.917968 0-9.78125 1.351562-16.792969 10.125-15.9570318 19.96875v.167969c0 .34375.0859378.769531.0859378 1.195312l.085937.257812c.171875 1.277344.425781 2.898438.683594 4.777344.425781 3.070313.9375 6.570313 1.535156 10.496094-.011719.121094.015625.242188.085938.339844l18.429687 121.34375v.085937c-.265625 1.003907-.324218 2.046875-.167968 3.074219l14.933593 101.375c10.75 73.128906 20.5625 139.777344 23.808594 161.535156l-42.839844 36.183594 478.207031-.257812-42.496093-36.011719c3.160156-21.332031 12.632812-85.757813 23.210937-157.523438l15.445313-105.300781c.144531-.9375.113281-1.890625-.082031-2.816406l18.257812-120.832032c.097656-.246093.15625-.503906.171875-.769531l2.390625-15.871093c.070312-.453126.097656-.910157.085938-1.367188.367187-4.527344-.90625-9.039062-3.585938-12.710938-2.972656-4.011718-7.429688-6.65625-12.371094-7.339843zm-119.042968 61.355469v-.171876l3.328124-40.277343c.15625-2.257813 1.207032-4.359375 2.925782-5.835938 1.714844-1.472656 3.949218-2.199219 6.207031-2.015625 4.691406.421875 8.179687 4.519532 7.851563 9.214844l-2.648438 32c8.707031.769531 17.496094 1.625 26.285156 2.5625v-.085938l3.496094-31.828124c.320312-3.035157 2.234375-5.667969 5.023438-6.90625 2.785156-1.238282 6.023437-.898438 8.488281.894531 2.46875 1.796875 3.792969 4.769531 3.472656 7.800781l-4.355469 39.425781c0 .339844-.082031.597657-.082031.9375l-4.4375 40.277344c-.476563 4.3125-4.113281 7.578125-8.449219 7.597656h-.9375c-4.707031-.535156-8.101562-4.765625-7.597656-9.472656l3.5-31.660156c-8.617188-.9375-17.238281-1.707031-25.769531-2.472657l-2.644531 31.742188c-.324219 4.425781-4.011719 7.851562-8.449219 7.851562h-.769531c-4.683594-.40625-8.15625-4.53125-7.765626-9.21875zm-64.765626-44.628907c6.035157-5.097656 13.789063-7.691406 21.671876-7.253906 11.074218.339844 21.082031 6.683594 26.113281 16.554687 1.34375 2.742188 1.117187 5.992188-.585938 8.527344-1.707031 2.535156-4.636719 3.964844-7.683593 3.753906-3.046876-.210937-5.75-2.03125-7.089844-4.773437-2.316406-4.222656-6.707032-6.886719-11.519532-6.996094-3.554687-.246093-7.070312.886719-9.8125 3.15625-2.464843 1.902344-3.964843 4.792969-4.097656 7.90625-.132812 3.109375 1.117188 6.117188 3.414063 8.222657 1.773437 1.871093 4.058593 3.175781 6.570312 3.753906.644531.15625 1.300781.269531 1.960938.339844.222656.074218.453125.105468.683593.085937h.171876c8.128906.363281 15.777343 3.957031 21.246093 9.984375 5.128907 5.671875 7.710938 13.195312 7.144531 20.820312-.5625 7.625-4.222656 14.6875-10.128906 19.542969-5.425781 4.699219-12.367187 7.273438-19.542968 7.253907-.511719 0-1.023438-.085938-1.449219-.085938-10.753907-.445312-20.433594-6.636719-25.34375-16.214844-1.648438-2.738281-1.628907-6.171875.054687-8.890625 1.6875-2.71875 4.75-4.269531 7.9375-4.015625 3.1875.257813 5.964844 2.273438 7.195313 5.226563 2.183593 4.042969 6.332031 6.636719 10.921875 6.828125 3.339844.285156 6.648437-.824219 9.132812-3.074219 2.460938-1.960937 3.980469-4.875 4.179688-8.019531.140625-2.9375-.867188-5.816406-2.816406-8.019532-.535157-.605468-1.136719-1.148437-1.789063-1.625-.191406-.128906-.390625-.246093-.597656-.339843-.75-.507813-1.550781-.9375-2.390625-1.28125-.085938-.082031-.171875-.167969-.253906-.082031-.519532-.324219-1.101563-.53125-1.707032-.597657-.695312-.203125-1.414062-.320312-2.136718-.34375-.160157-.070312-.335938-.097656-.511719-.085937-7.820313-.253906-15.234375-3.5625-20.648438-9.214844-5.640625-5.457031-8.683593-13.0625-8.355469-20.90625.324219-7.839844 3.984376-15.167969 10.0625-20.136719zm-42.582031-.515625c.1875-4.683594 4.015625-8.398437 8.703125-8.445312 2.253906.03125 4.402344.957031 5.96875 2.574218 1.570313 1.617188 2.429688 3.789063 2.394532 6.042969l-1.109376 81.152344c-.054687 4.660156-3.871093 8.402344-8.535156 8.363281h-.082031c-2.265625-.023437-4.425781-.945312-6.011719-2.558594-1.582031-1.617187-2.460937-3.796874-2.4375-6.058593zm-82.433593-6.910156c3.765624-1.132812 7.820312.453125 9.816406 3.839844 9.898437 16.46875 19.625 33.195312 29.011718 50.089844l-.597656-46.847657c-.035156-2.253906.824219-4.425781 2.394532-6.042969 1.566406-1.617187 3.714843-2.542968 5.96875-2.574218h.171874c4.664063.03125 8.453126 3.78125 8.53125 8.445312l1.109376 81.070313c.023437 3.933593-2.628907 7.378906-6.4375 8.367187-3.808594.988282-7.800782-.738281-9.691407-4.1875-8.957031-16.8125-18.261719-33.621094-27.902343-50.261718l1.960937 47.019531c.148437 4.695312-3.496094 8.644531-8.191406 8.875h-.339844c-4.582031.003906-8.351563-3.613281-8.535156-8.191407l-3.328125-81.066406c-.164063-3.894531 2.328125-7.410156 6.058594-8.535156zm-42.324219 2.132812c2.257812-.164062 4.484375.585938 6.183593 2.074219 1.699219 1.492188 2.730469 3.605469 2.863282 5.863281l5.546875 80.894532c.164062 2.257812-.585938 4.484375-2.078125 6.183594-1.492188 1.699218-3.601563 2.730468-5.859375 2.863281-.1875.074219-.394531.105469-.597657.085937-4.457031-.035156-8.136718-3.492187-8.449218-7.9375l-5.546875-80.980468c-.160157-2.257813.585937-4.484376 2.078125-6.183594 1.492187-1.699219 3.601562-2.730469 5.859375-2.863282zm-69.035157 11.945313c3.417969-4.078125 8.277344-6.675781 13.570313-7.25 7.335937-.769531 14.761719-1.453125 22.183594-2.136719 4.714843-.398437 8.859375 3.097656 9.261719 7.808594.398437 4.714844-3.097657 8.859375-7.808594 9.261719-7.253906.59375-14.59375 1.277343-21.933594 2.046875-.765625.0625-1.472656.429687-1.960938 1.023437-.21875.230469-.34375.535157-.339843.851563l2.472656 22.101562v.085938c.378906-.117188.75-.261719 1.109375-.425782.359375-.125.730469-.210937 1.109375-.257812 7.253906-.765625 14.421875-1.449219 21.675781-2.046875 3.125-.433594 6.234375.894531 8.085938 3.453125 1.847656 2.554688 2.136718 5.921875.746094 8.757812-1.386719 2.832032-4.226563 4.667969-7.382813 4.769532-7.082031.597656-14.25 1.28125-21.332031 2.050781-.339844 0-.597656.085937-.9375.085937-.464844-.085937-.917969-.199218-1.367188-.34375v.171876l3.585938 32.085937c.160156 1.804687-.226563 3.621094-1.109375 5.203125l-.085938.085938c-1.371093 2.308593-3.734375 3.851562-6.402343 4.183593h-.9375c-4.335938-.019531-7.972657-3.285156-8.449219-7.597656l-7.765625-70.484375c-.5-4.847656.941406-9.695312 4.011718-13.484375zm382.976563 241.152344c-9.898437 67.5-18.859375 128.683593-22.613281 153.34375h-360.277344c-3.753906-25.171875-13.054688-88.316407-23.210938-157.351563l-12.203124-83.03125c.6875.027344 1.375-.027344 2.046874-.171875 141.601563-20.476562 285.410157-20.476562 427.011719 0 .648438.105469 1.304688.160157 1.960938.171875h.085937zm0 0"/></svg>